HIERARCHY
ROOT Hips
{
	OFFSET 0.000000 0.000000 0.000000 
	CHANNELS 6 Xposition Yposition Zposition Zrotation Yrotation Xrotation
	JOINT LeftUpLeg
	{
		OFFSET 1.363060 -1.794630 0.839290 
		CHANNELS 3 Zrotation Yrotation Xrotation
		JOINT LeftLeg
		{
			OFFSET 2.448110 -6.726130 0.000000 
			CHANNELS 3 Zrotation Yrotation Xrotation
			JOINT LeftFoot
			{
				OFFSET 2.562200 -7.039590 0.000000 
				CHANNELS 3 Zrotation Yrotation Xrotation
				JOINT LeftToeBase
				{
					OFFSET 0.157640 -0.433110 2.322550 
					CHANNELS 3 Zrotation Yrotation Xrotation
					End Site
					{
						OFFSET 0.000000 0.000000 0.000000 
					}
				}
			}
		}
	}
	JOINT RightUpLeg
	{
		OFFSET -1.305520 -1.794630 0.839290 
		CHANNELS 3 Zrotation Yrotation Xrotation
		JOINT RightLeg
		{
			OFFSET -2.542530 -6.985550 0.000000 
			CHANNELS 3 Zrotation Yrotation Xrotation
			JOINT RightFoot
			{
				OFFSET -2.568260 -7.056230 0.000000 
				CHANNELS 3 Zrotation Yrotation Xrotation
				JOINT RightToeBase
				{
					OFFSET -0.164730 -0.452590 2.363150 
					CHANNELS 3 Zrotation Yrotation Xrotation
					End Site
					{
						OFFSET 0.000000 0.000000 0.000000 
					}
				}
			}
		}
	}
	JOINT Spine
	{
		OFFSET 0.028270 2.035590 -0.193380 
		CHANNELS 3 Zrotation Yrotation Xrotation
		JOINT Spine1
		{
			OFFSET 0.056720 2.048850 -0.042750 
			CHANNELS 3 Zrotation Yrotation Xrotation
			JOINT Neck1
			{
				OFFSET -0.054170 1.746240 0.172020 
				CHANNELS 3 Zrotation Yrotation Xrotation
				JOINT Head
				{
					OFFSET 0.104070 1.761360 -0.123970 
					CHANNELS 3 Zrotation Yrotation Xrotation
					End Site
					{
						OFFSET 0.000000 0.000000 0.000000 
					}
				}
			}
			JOINT LeftArm
			{
				OFFSET 3.362410 1.200890 -0.311210 
				CHANNELS 3 Zrotation Yrotation Xrotation
				JOINT LeftForeArm
				{
					OFFSET 4.983000 -0.000000 -0.000000 
					CHANNELS 3 Zrotation Yrotation Xrotation
					JOINT LeftHand
					{
						OFFSET 3.483560 -0.000000 -0.000000 
						CHANNELS 3 Zrotation Yrotation Xrotation
						JOINT LeftHandIndex1
						{
							OFFSET 0.715260 -0.000000 -0.000000 
							CHANNELS 3 Zrotation Yrotation Xrotation
							End Site
							{
								OFFSET 0.000000 0.000000 0.000000 
							}
						}
					}
				}
			}
			JOINT RightArm
			{
				OFFSET -3.136600 1.374050 -0.404650 
				CHANNELS 3 Zrotation Yrotation Xrotation
				JOINT RightForeArm
				{
					OFFSET -5.241900 -0.000000 -0.000000 
					CHANNELS 3 Zrotation Yrotation Xrotation
					JOINT RightHand
					{
						OFFSET -3.444170 -0.000000 -0.000000 
						CHANNELS 3 Zrotation Yrotation Xrotation
						JOINT RightHandIndex1
						{
							OFFSET -0.622530 -0.000000 -0.000000 
							CHANNELS 3 Zrotation Yrotation Xrotation
							End Site
							{
								OFFSET 0.000000 0.000000 0.000000 
							}
						}
					}
				}
			}
		}
	}
}
MOTION
Frames: 18
Frame Time: 0.041667
-1.354497 17.751098 -11.401974 2.057516 16.034119 26.446852 -15.800876 -16.214529 -36.787860 0.801932 13.239222 32.493212 -2.100655 9.501227 -9.680504 0.264600 3.309200 9.140900 -21.124404 42.587024 -43.542209 -0.772880 -14.193505 28.632633 -1.894537 -0.796231 3.149868 -1.863600 8.576000 -24.477700 1.782575 0.119485 -5.500763 -0.656254 0.137480 -4.393918 8.513281 -2.873200 2.834055 2.231500 -1.347100 5.495400 1.825218 17.375896 19.364821 3.246042 -7.924422 -0.926123 -1.388795 -1.117987 45.700140 -7.125000 0.000000 0.000000 -12.774835 -14.921083 29.783799 -4.340497 9.025348 -1.700060 -1.508633 3.220628 -11.032796 7.125000 0.000000 0.000000 
-1.429386 17.729887 -11.373837 2.427424 17.444284 26.939222 -15.614344 -16.423722 -37.454515 0.886476 13.408996 32.790005 -2.007410 9.184043 -8.553633 0.151200 2.505800 6.905700 -20.492287 41.923138 -43.125470 -0.869760 -14.282712 29.109973 -1.968119 -0.521360 3.191755 -1.079800 6.605000 -18.550200 1.787082 0.397352 -5.436460 -0.737471 0.307397 -4.366025 8.600291 -3.420413 2.375162 2.320300 -1.624700 5.374200 1.612602 17.626476 18.887476 3.161725 -7.804511 -0.923975 -1.476702 -0.910269 45.976448 -7.125000 0.000000 0.000000 -12.508078 -13.816429 30.103562 -4.299460 9.047919 -1.639214 -1.442481 3.154281 -10.313526 7.125000 0.000000 0.000000 
-1.506007 17.715710 -11.347647 2.621573 19.012950 27.421033 -15.114478 -16.739683 -38.107638 0.953282 13.565397 33.015098 -1.778798 8.547065 -7.370938 0.109100 2.129600 5.864000 -19.823738 41.591611 -42.798454 -1.013469 -14.435096 29.641465 -1.325605 -2.185453 1.913497 -0.872700 5.956100 -16.657200 1.801490 0.712553 -5.390607 -0.901972 0.493355 -4.511231 8.697695 -3.978416 1.856009 2.437500 -1.911100 5.206400 1.366822 17.872715 18.311423 3.116655 -7.732433 -0.924963 -1.489549 -0.873664 46.545412 -7.125000 0.000000 0.000000 -12.338381 -12.614731 30.473151 -4.358827 9.244548 -1.693929 -1.558792 3.283137 -10.510991 7.125000 0.000000 0.000000 
-1.586848 17.712139 -11.327301 2.776889 20.766488 27.970530 -14.454848 -17.129002 -38.786112 0.987297 13.693083 33.120713 -1.485401 7.762213 -6.113672 0.070400 1.711900 4.710000 -19.135235 41.373396 -42.527991 -1.178376 -14.609683 30.166609 0.012703 -5.615233 -0.138218 -1.236600 7.051800 -19.869100 1.821130 0.976438 -5.335556 -1.105786 0.645278 -4.549329 8.845749 -4.653875 1.327603 2.585400 -2.243900 5.102400 1.114318 18.050373 17.503788 3.098257 -7.677766 -0.926096 -1.474039 -0.889940 47.270569 -7.125000 0.000000 0.000000 -12.069969 -11.441687 30.325548 -4.365594 9.329612 -1.679878 -1.569521 3.276822 -9.433066 7.125000 0.000000 0.000000 
-1.667689 17.717550 -11.305333 2.977280 22.878903 28.647850 -13.698793 -17.671976 -39.524021 0.980636 13.781842 33.056066 -1.302315 7.265282 -4.617618 0.016800 0.837800 2.302600 -18.416735 41.020954 -42.317660 -1.329326 -14.758213 30.636641 1.495233 -9.309453 -2.096099 -1.657300 8.112400 -23.055900 1.827957 1.160796 -5.298413 -1.477533 0.740369 -4.592233 9.081147 -5.422836 0.803229 2.823400 -2.612900 5.030100 0.954829 18.167292 17.140689 3.114328 -7.670337 -0.926305 -1.429271 -0.940406 47.629005 -7.125000 0.000000 0.000000 -11.705303 -10.342155 29.920846 -4.450555 9.483954 -1.658980 -1.492684 3.256039 -7.565358 7.125000 0.000000 0.000000 
-1.754916 17.725666 -11.271784 3.355438 24.991512 29.300446 -13.066231 -18.235364 -40.117227 0.935377 13.810012 32.844312 -1.183820 6.957826 -3.021990 0.004900 -0.453600 -1.246500 -17.691497 40.587215 -42.058463 -1.448569 -14.860970 31.038673 2.591906 -11.987883 -3.699563 -1.597200 7.971200 -22.626700 1.816425 1.286233 -5.290855 -1.913359 0.807043 -4.848359 9.286135 -6.151301 0.290697 3.032500 -2.961000 4.969300 0.903089 18.460260 17.704095 3.125852 -7.674688 -0.927910 -1.380968 -1.019073 47.255104 -7.125000 0.000000 0.000000 -11.290859 -9.066879 29.086663 -4.480904 9.568649 -1.629529 -1.443174 3.241455 -5.032433 7.125000 0.000000 0.000000 
-1.863570 17.735406 -11.237261 4.063406 26.741297 30.069600 -12.760067 -18.536994 -40.697487 0.852054 13.783118 32.532182 -0.997681 6.504294 -1.332534 0.084000 -1.869000 -5.143900 -17.613871 40.699522 -41.925756 -1.536298 -14.958342 31.278479 3.678778 -14.695110 -5.275291 -1.387300 7.452400 -21.062700 1.807524 1.456882 -5.251470 -1.948483 0.932092 -5.006888 9.454107 -6.821906 -0.261970 3.211400 -3.285200 4.875500 0.671869 18.667971 17.571833 3.109106 -7.646708 -0.941787 -1.428661 -0.920778 47.348672 -7.125000 0.000000 0.000000 -11.022089 -7.650867 28.390301 -4.453844 9.592311 -1.592536 -1.448388 3.229089 -2.931411 7.125000 0.000000 0.000000 
-1.976336 17.756185 -11.210423 4.622243 28.425447 30.821448 -12.246311 -18.727106 -41.264989 0.743945 13.719119 32.103202 -0.840160 6.170550 0.567322 0.331800 -3.701900 -10.239400 -17.867547 41.400166 -41.900624 -1.594633 -15.043215 31.320502 4.974194 -18.038059 -6.612559 -1.294300 7.208300 -20.333900 1.779044 1.885669 -5.235039 -2.027403 1.162500 -5.420261 9.560906 -7.659356 -0.872465 3.351500 -3.705100 4.677300 0.444520 18.474901 16.371952 3.086110 -7.560913 -0.936048 -1.412417 -0.926187 48.519558 -7.125000 0.000000 0.000000 -10.816781 -6.559952 28.980179 -4.435952 9.607932 -1.541102 -1.424676 3.181246 -1.668910 7.125000 0.000000 0.000000 
-2.068433 17.801205 -11.170272 4.763244 30.643501 31.464693 -11.014759 -19.322555 -41.663825 0.588317 13.618299 31.507605 -0.418070 5.219060 2.675763 0.485600 -4.468500 -12.398500 -17.392469 41.591362 -41.706281 -1.625923 -15.059829 31.347457 5.968704 -20.610148 -7.873170 -1.041500 6.490500 -18.214400 1.764362 2.213660 -5.234680 -2.548599 1.305971 -5.771905 9.703696 -8.526916 -1.459368 3.542700 -4.129500 4.513300 0.363364 18.393042 16.103204 3.152010 -7.607266 -0.937524 -1.345387 -0.955601 48.780852 -7.125000 0.000000 0.000000 -10.547300 -5.424449 29.531507 -4.512104 9.757433 -1.527412 -1.413038 3.165203 -0.533447 7.125000 0.000000 0.000000 
-2.158581 17.847740 -11.128932 4.883101 33.041926 32.204672 -9.602555 -20.015659 -42.233756 0.401696 13.516341 30.860411 0.155403 3.918016 4.992118 0.542500 -4.718900 -13.108400 -16.453331 40.962517 -41.492843 -1.633296 -14.996650 31.311856 6.716696 -22.527131 -8.994618 -0.851500 5.885300 -16.452000 1.764552 2.435491 -5.237642 -3.117529 1.391662 -5.984539 9.855657 -9.356198 -2.034515 3.762400 -4.524600 4.428300 0.234453 18.388023 16.388686 3.184983 -7.657338 -0.929454 -1.239536 -1.074199 48.289781 -7.125000 0.000000 0.000000 -10.276255 -4.226345 28.808421 -4.701158 10.078870 -1.594853 -1.478240 3.186023 1.519784 7.125000 0.000000 0.000000 
-2.290070 17.867003 -11.112699 5.764466 34.624350 33.368995 -8.978037 -20.331890 -43.102363 0.180035 13.369742 30.138029 0.573724 3.067349 7.436548 0.901500 -6.051000 -16.932300 -16.656157 40.395914 -41.843520 -1.679584 -15.011189 31.293498 7.358313 -24.231841 -9.566176 -0.781200 5.642700 -15.751100 1.698320 2.826947 -5.295429 -3.330904 1.565317 -6.727170 10.094407 -10.152972 -2.641987 4.033200 -4.905900 4.403100 0.047374 18.271711 16.329682 3.161233 -7.598004 -0.919049 -1.164020 -1.146159 48.511357 -7.125000 0.000000 0.000000 -10.003750 -3.173591 27.610971 -5.030065 10.525821 -1.709797 -1.538495 3.218300 4.215660 7.125000 0.000000 0.000000 
-2.397750 17.898929 -11.076878 6.011443 37.207897 34.829548 -7.099054 -20.992783 -44.480232 -0.114687 13.223657 29.175320 1.261618 1.610758 10.361480 1.259300 -7.113700 -20.052600 -16.254275 39.412777 -42.609991 -1.684605 -15.004634 31.291533 7.877130 -25.624677 -10.617871 -0.693000 5.321700 -14.828400 1.697441 3.115582 -5.356889 -3.987647 1.653951 -6.939089 10.270319 -11.012382 -3.257269 4.267500 -5.310900 4.320100 -0.189511 17.931303 15.147750 3.210708 -7.593007 -0.915870 -1.097173 -1.159353 49.927616 -7.125000 0.000000 0.000000 -9.870731 -2.029299 27.626354 -5.223246 10.760094 -1.686477 -1.472360 3.144836 6.741222 7.125000 0.000000 0.000000 
-2.515711 17.931395 -11.021360 6.969188 39.369282 36.681119 -5.538503 -21.734177 -45.649051 -0.497134 12.967839 28.047634 2.160543 -0.482897 13.631709 1.120500 -6.724200 -18.900700 -16.565313 38.703123 -43.323707 -1.688919 -15.019841 31.336636 8.213934 -26.560243 -12.143691 -0.510300 4.578800 -12.710900 1.655677 3.443115 -5.397310 -4.426343 1.798202 -7.056003 10.343560 -11.988735 -3.898200 4.375400 -5.775700 4.244600 -0.415949 17.451614 13.882089 3.318682 -7.682303 -0.931783 -1.068657 -1.171162 50.895145 -7.125000 0.000000 0.000000 -9.951949 -0.964024 28.225445 -5.443977 11.061954 -1.734740 -1.541599 3.118187 7.473714 7.125000 0.000000 0.000000 
-2.628802 17.977389 -10.934025 8.447989 40.981143 38.696863 -5.081147 -21.351165 -46.657628 -0.933469 12.559230 26.895156 3.089363 -2.804057 17.487313 1.299500 -7.222200 -20.375400 -17.179891 38.154190 -43.664164 -1.684109 -14.977833 31.233731 8.566839 -27.539479 -13.495751 -0.377000 3.943300 -10.917200 1.532275 3.851735 -5.478176 -4.839243 1.970307 -7.470347 10.478912 -12.992505 -4.495832 4.515100 -6.256000 4.195900 -0.385395 17.091339 14.003047 3.475599 -7.857123 -0.963855 -1.058388 -1.223833 50.404063 -7.125000 0.000000 0.000000 -9.770619 -0.020036 28.500574 -5.751755 11.485436 -1.837973 -1.619948 3.126278 8.448594 7.125000 0.000000 0.000000 
-2.739837 18.016024 -10.826778 10.143004 42.244867 40.996767 -4.341777 -21.387350 -47.602642 -1.351994 12.144329 25.639355 3.734704 -4.107228 21.289294 1.314800 -7.262800 -20.496300 -18.282131 37.875233 -44.159105 -1.666706 -14.946468 31.093479 8.830021 -28.339461 -15.025312 -0.238200 3.141200 -8.672100 1.385985 4.176316 -5.583883 -5.139981 2.120628 -7.931083 10.599934 -13.735249 -5.061628 4.631800 -6.608600 4.101200 -0.233880 17.018780 14.872450 3.584401 -7.973702 -0.982471 -1.035514 -1.259837 49.199350 -7.125000 0.000000 0.000000 -9.486693 1.242302 28.707336 -6.022952 11.854513 -1.899783 -1.669697 3.081024 9.727060 7.125000 0.000000 0.000000 
-2.843297 18.048490 -10.729379 11.852990 43.727250 43.620390 -2.464354 -22.566011 -48.615371 -1.678041 11.839393 24.210695 3.958508 -2.982404 25.429974 0.369300 -3.903300 -10.804800 -18.411958 35.981600 -44.855504 -1.671977 -14.808320 30.913965 8.832696 -28.287330 -15.220049 -0.163200 2.602500 -7.174000 1.311254 4.300647 -5.636001 -5.209721 2.228113 -7.893182 10.733035 -14.443093 -5.688776 4.802400 -6.924400 3.995800 -0.210873 17.060550 17.740310 3.601061 -8.160601 -0.999784 -1.044105 -1.334497 45.525610 -7.125000 0.000000 0.000000 -9.581094 2.978815 28.532691 -6.155803 12.063672 -1.879533 -1.690337 2.986299 10.697651 7.125000 0.000000 0.000000 
-2.941129 18.084528 -10.647456 13.506546 45.118618 46.296984 -0.795768 -23.422197 -49.489039 -1.810724 11.624475 22.904899 3.733806 -0.042280 27.941515 0.001600 0.261900 0.719600 -18.102189 33.476454 -45.739303 -1.703737 -14.629406 30.691006 8.864692 -28.219342 -14.516463 -0.159600 2.574300 -7.095800 1.221676 4.523689 -5.690977 -5.427972 2.367449 -7.839579 10.829412 -15.128692 -6.229842 4.926400 -7.226000 3.941900 -0.255645 17.091086 20.277272 3.673695 -8.392868 -1.024891 -1.027183 -1.397567 42.189823 -7.125000 0.000000 0.000000 -9.730036 4.835024 27.606967 -6.195026 12.194468 -1.839893 -1.692833 2.902777 12.243538 7.125000 0.000000 0.000000 
-3.033009 18.125436 -10.561961 15.445645 46.062381 49.296173 0.262807 -24.167896 -50.198544 -1.806834 11.464984 21.891410 3.097590 2.595121 26.890690 0.091300 1.948700 5.363800 -19.895669 33.478615 -46.731249 -1.700187 -14.615835 30.443552 9.293437 -29.521794 -15.976602 -0.102700 2.066600 -5.689700 1.108660 4.693479 -5.796664 -5.565860 2.480314 -7.979737 10.890866 -15.477273 -6.753152 5.008500 -7.374400 3.797000 -0.650114 17.471095 21.169371 3.810630 -8.607473 -1.051011 -0.929317 -1.389975 40.754945 -7.125000 0.000000 0.000000 -9.654505 6.928757 26.329496 -6.390252 12.498850 -1.815835 -1.612612 2.897266 14.678978 7.125000 0.000000 0.000000 
